# xmcd
#
# Track frame offsets:
#	150
#	18997
#	37250
#	54270
#	68995
#	84565
#	101265
#	130482
#	142610
#	161422
#	179662
#	196660
#	211402
#	226980
#	243712
#	272987
#	296510
#
# Disc length: 3965 seconds
#
# Revision: 1
# Processed by: cddbd v1.5.2PL0 Copyright (c) Steve Scherf et al.
# Submitted via: audiograbber 1.83.01
#
DISCID=f30f7b11
DTITLE=Ray Stevens - Hits of Ray Stevens
DYEAR=2007
DGENRE=Humor
TTITLE0=Stevens, Ray - Mississippi Squirrel Revival
TTITLE1=Stevens, Ray - Everything Is Beautiful
TTITLE2=Stevens, Ray - Ahab The Arab
TTITLE3=Stevens, Ray - Misty
TTITLE4=Stevens, Ray - Gitarzan
TTITLE5=Stevens, Ray - Streak, The
TTITLE6=Stevens, Ray - Haircut Song, The
TTITLE7=Stevens, Ray - Santa Claus Is Watching
TTITLE8=Stevens, Ray - Mississippi Squirrel Revival {Vocal}
TTITLE9=Stevens, Ray - Everything Is Beautiful {Vocal}
TTITLE10=Stevens, Ray - Ahab The Arab {Vocal}
TTITLE11=Stevens, Ray - Misty {Vocal}
TTITLE12=Stevens, Ray - Gitarzan {Vocal}
TTITLE13=Stevens, Ray - Streak, The {Vocal}
TTITLE14=Stevens, Ray - Haircut Song, The {Vocal}
TTITLE15=Stevens, Ray - Santa Claus Is Watching {Vocal}
TTITLE16=Data - Data Track
EXTD=
EXTT0=
EXTT1=
EXTT2=
EXTT3=
EXTT4=
EXTT5=
EXTT6=
EXTT7=
EXTT8=
EXTT9=
EXTT10=
EXTT11=
EXTT12=
EXTT13=
EXTT14=
EXTT15=
EXTT16=
PLAYORDER=
